<?xml version="1.0" encoding="utf-8"?>
<svg xmlns="http://www.w3.org/2000/svg" viewBox="5.7705 4.1071 20.1092 55.7908" width="20.1092px" height="55.7908px">
  <g transform="matrix(0.10000000149011612, 0, 0, -0.10000000149011612, -16.12032699584961, 63.94795227050782)" fill="white" stroke="red" stroke-width="25px">
    <path d="M 273 585 C 255 565 257 547 280 530 C 309 509 305 473 270 440 C 244 416 240 405 240 360 C 240 319 245 303 261 289 L 283 270 L 251 241 C 213 206 208 153 240 130 C 251 122 260 110 260 102 C 260 84 285 60 303 60 C 312 60 321 54 324 48 C 329 38 331 38 336 48 C 339 54 348 60 357 60 C 382 60 400 87 400 124 C 400 144 405 160 410 160 C 416 160 420 176 420 196 C 420 225 412 240 370 280 C 312 337 308 361 350 400 C 376 424 380 435 380 479 C 380 525 376 535 345 565 C 308 603 292 607 273 585" style="paint-order: fill; fill-rule: nonzero;"/>
    <path d="M 335 555 C 355 536 360 521 360 479 C 360 435 356 424 330 400 C 288 361 292 337 350 280 C 392 240 400 225 400 196 C 400 176 396 160 390 160 C 385 160 380 142 380 120 C 380 98 376 80 370 80 C 365 80 360 98 360 120 C 360 142 357.617 248.939 351.617 248.939 C 346.617 248.939 340 138 340 110 C 340 83 336 60 330 60 C 325 60 320 83 320 110 C 320 138 316 160 310 160 C 305 160 300 142 300 120 C 300 98 296 80 290 80 C 284 80 280 107 280 140 C 280 173 276 200 270 200 C 265 200 260 187 260 170 C 260 154 256 140 250 140 C 245 140 240 156 240 176 C 240 203 247 219 271 241 L 303 270 L 281 289 C 265 303 260 319 260 360 C 260 405 264 416 290 440 C 325 473 329 509 300 530 C 276 547 273 580 295 580 C 304 580 322 569 335 555" style="paint-order: fill; fill-rule: nonzero;"/>
  </g>
</svg>